<?xml version="1.0" encoding="UTF-8"?>
<svg xmlns="http://www.w3.org/2000/svg" xmlns:xlink="http://www.w3.org/1999/xlink" viewBox="0 0 120 120" width="120px" height="120px">
<g id="surface6836010">
<path style=" stroke:none;fill-rule:nonzero;fill:rgb(65.098041%,45.882353%,96.078432%);fill-opacity:1;" d="M 91.3125 12 C 89.265625 12 87.21875 12.78125 85.65625 14.34375 L 76 24 L 96 44 L 105.65625 34.34375 C 108.78125 31.21875 108.78125 26.15625 105.65625 23.03125 L 96.96875 14.34375 C 95.40625 12.78125 93.359375 12 91.3125 12 Z M 68 32 L 21.039062 78.960938 C 21.039062 78.960938 24.710938 78.632812 26.078125 80 C 27.445312 81.367188 26.320312 90.320312 28 92 C 29.679688 93.679688 38.574219 92.496094 39.851562 93.773438 C 41.128906 95.050781 41.039062 98.960938 41.039062 98.960938 L 88 52 Z M 16 92 L 12.226562 102.6875 C 12.078125 103.109375 12 103.554688 12 104 C 12 106.210938 13.789062 108 16 108 C 16.445312 108 16.890625 107.921875 17.3125 107.773438 C 17.324219 107.769531 17.339844 107.761719 17.351562 107.757812 L 17.453125 107.726562 C 17.460938 107.722656 17.46875 107.714844 17.476562 107.710938 L 28 104 Z M 16 92 "/>
</g>
</svg>
